<svg xmlns="http://www.w3.org/2000/svg" width="400" height="120" viewBox="0 0 400 120" fill="none">
  <style>
    .title { font: 600 14px 'Segoe UI', Ubuntu, Sans-Serif; fill: #7aa2f7; }
    .desc { font: 400 12px 'Segoe UI', Ubuntu, Sans-Serif; fill: #a9b1d6; }
    .stat { font: 400 11px 'Segoe UI', Ubuntu, Sans-Serif; fill: #737aa2; }
  </style>
  <rect x="0.5" y="0.5" width="399" height="119" rx="6" fill="#1a1b26" stroke="#24283b"/>
  
  <!-- Icon & Title -->
  <g transform="translate(18, 22)">
    <svg x="0" y="0" width="16" height="16" viewBox="0 0 16 16">
      <path d="M4 9H3V8h1v1zm0-3H3v1h1V6zm0-2H3v1h1V4zm10-1v9c0 .55-.45 1-1 1H1.5C.67 14 0 13.33 0 12.5V1.5C0 .67.67 0 1.5 0H13c.55 0 1 .45 1 1zM2 13h10V2H2v11z" fill="#7aa2f7" />
    </svg>
    <text x="25" y="13" class="title">AI-Resume-Analyzer-ATS-Score-Checker</text>
  </g>

  <!-- Description -->
  <text x="18" y="65" class="desc">No description provided</text>

  <!-- Footer -->
  <g transform="translate(18, 95)">
    <!-- Language -->
    <circle cx="5" cy="-4" r="5" fill="#3572A5" />
    <text x="15" y="0" class="stat">Python</text>

    <!-- Stars -->
    <g transform="translate(110, 0)">
      <svg x="0" y="-12" width="14" height="14" viewBox="0 0 16 16">
        <path d="M8 .25a.75.75 0 0 1 .673.418l1.882 3.815 4.21.612a.75.75 0 0 1 .416 1.279l-3.046 2.97 3.19 4.175a.75.75 0 0 1-1.095.896L8 12.27l-3.92 2.06a.75.75 0 0 1-1.095-.896l3.19-4.175-3.046-2.97a.75.75 0 0 1 .415-1.279l4.21-.612 1.882-3.815A.75.75 0 0 1 8 .25z" fill="#737aa2" />
      </svg>
      <text x="18" y="0" class="stat">1</text>
    </g>

    <!-- Forks -->
    <g transform="translate(175, 0)">
      <svg x="0" y="-12" width="14" height="14" viewBox="0 0 16 16">
        <path d="M5 3.25a.75.75 0 1 1-1.5 0 .75.75 0 0 1 1.5 0zm0 2.122a2.25 2.25 0 1 0-1.5 0v5.256a2.251 2.251 0 1 0 1.5 0V5.372zm8 0a2.25 2.25 0 1 0-1.5 0v5.256a2.251 2.251 0 1 0 1.5 0V5.372zM11.5 3.25a.75.75 0 1 1-1.5 0 .75.75 0 0 1 1.5 0z" fill="#737aa2" />
      </svg>
      <text x="18" y="0" class="stat">0</text>
    </g>
  </g>
</svg>